<?xml version="1.0" encoding="iso-8859-1"?>
<!-- Generator: Adobe Illustrator 19.0.0, SVG Export Plug-In . SVG Version: 6.00 Build 0)  -->
<svg version="1.1" id="Capa_1" xmlns="http://www.w3.org/2000/svg" xmlns:xlink="http://www.w3.org/1999/xlink" x="0px" y="0px"
	 viewBox="0 0 448 448" style="enable-background:new 0 0 448 448;" xml:space="preserve">
<path style="fill:#607D8B;" d="M96,319.232H48c-17.6,0-32,14.4-32,32s14.4,32,32,32h176h176c17.6,0,32-14.4,32-32s-14.4-32-32-32
	h-48H96z"/>
<path style="fill:#455A64;" d="M400,304H48c-26.464,0-48,21.536-48,48s21.536,48,48,48h352c26.464,0,48-21.536,48-48
	S426.464,304,400,304z M400,368H48c-8.832,0-16-7.2-16-16s7.168-16,16-16h352c8.8,0,16,7.2,16,16S408.8,368,400,368z"/>
<path style="fill:#FFC107;" d="M224,48c-97.056,0-176,78.944-176,176c0,59.52,29.76,112.128,75.136,144h201.728
	C370.208,336.128,400,283.52,400,224C400,126.944,321.024,48,224,48z"/>
<path style="fill:#FAFAFA;" d="M224,208c-8.832,0-16-7.168-16-16s7.168-16,16-16h32c8.832,0,16-7.168,16-16s-7.168-16-16-16h-16v-16
	c0-8.832-7.168-16-16-16s-16,7.168-16,16v18.944c-18.592,6.624-32,24.224-32,45.056c0,26.464,21.536,48,48,48
	c8.832,0,16,7.168,16,16s-7.168,16-16,16h-32c-8.832,0-16,7.168-16,16s7.168,16,16,16h16v16c0,8.832,7.168,16,16,16s16-7.168,16-16
	v-18.944c18.592-6.624,32-24.224,32-45.056C272,229.536,250.464,208,224,208z"/>
<g>
</g>
<g>
</g>
<g>
</g>
<g>
</g>
<g>
</g>
<g>
</g>
<g>
</g>
<g>
</g>
<g>
</g>
<g>
</g>
<g>
</g>
<g>
</g>
<g>
</g>
<g>
</g>
<g>
</g>
</svg>
