<?xml version="1.0" encoding="utf-8"?>
<!-- Generator: Adobe Illustrator 16.0.0, SVG Export Plug-In . SVG Version: 6.00 Build 0)  -->
<!DOCTYPE svg PUBLIC "-//W3C//DTD SVG 1.1//EN" "http://www.w3.org/Graphics/SVG/1.1/DTD/svg11.dtd">
<svg version="1.1" id="Layer_1" xmlns="http://www.w3.org/2000/svg" xmlns:xlink="http://www.w3.org/1999/xlink" x="0px" y="0px"
	 width="300px" height="300px" viewBox="0 0 300 300" enable-background="new 0 0 300 300" xml:space="preserve">
<g>
	<rect x="145" y="272.598" fill="#FF9900" width="10" height="10"/>
	<polygon fill="#FF9900" points="155,247.598 155,262.598 145,262.598 145,217.598 155,217.598 155,237.598 	"/>
</g>
<path fill="#FF6600" d="M100,157.598c0-27.5,22.5-50,50-50s50,22.5,50,50c0,27.5-22.5,50-50,50S100,185.098,100,157.598z
	 M105,157.598c0,25,20,45,45,45s45-20,45-45c0-25-20-45-45-45S105,132.598,105,157.598z"/>
<g>
	<path fill="#E4C6A1" d="M84.5,237.598H10v-200h15v185c0,2.5,1.5,4.5,4,5L84.5,237.598z"/>
	<path fill="#E4C6A1" d="M290,37.598v200h-74.5l55.5-10c2.5-0.5,4-2.5,4-5v-185H290L290,37.598z"/>
</g>
<g>
	<path fill="#FFF8EF" d="M145,37.098v60.5c-30.5,2.5-55,28.5-55,60c0,28,19,51.5,45,58v21l-100-18v-200L145,37.098z"/>
	<path fill="#FFF8EF" d="M265,18.598v200l-100,18v-21c26-6.5,45-30,45-58c0-31.5-24-57-55-60v-60.5L265,18.598z"/>
</g>
<circle fill="#D9CDC1" cx="150" cy="157.598" r="35"/>
<path fill="#FFF8EF" d="M185,157.598c0-3.5-0.5-7-1.5-10.5c-6.5-8.5-17-14.5-28.5-14.5c-19.5,0-35,15.5-35,35c0,3.5,0.5,7,1.5,10.5
	c6.5,9,16.5,14.5,28.5,14.5C169.5,192.598,185,177.098,185,157.598z"/>
<g>
	<path fill="#42210B" d="M185,157.598c0-19.5-15.5-35-35-35s-35,15.5-35,35c0,19.5,15.5,35,35,35S185,177.098,185,157.598z
		 M150,202.598c-25,0-45-20-45-45c0-25,20-45,45-45s45,20,45,45C195,182.598,175,202.598,150,202.598z"/>
	<path fill="#42210B" d="M265,218.598v-200l-110,18.5v60.5c31,2.5,55,28.5,55,60c0,28-19,51.5-45,58v21L265,218.598z M290,237.598
		v-200h-15v185c0,2.5-1.5,4.5-4,5l-55.5,10H290z M145,282.598h10v-10h-10V282.598z M155,217.598h-10v45h10v-15v-10V217.598z
		 M84.5,237.598l-55.5-10c-2.5-0.5-4-2.5-4-5v-185H10v200H84.5z M31,7.598l119,20l119-20c1.5-0.5,3,0,4,1c1.5,1,2,2.5,2,4v15h20
		c2.5,0,5,2,5,5v210c0,2.5-2.5,5-5,5H165v40c0,2.5-2.5,5-5,5h-20c-2.5,0-5-2.5-5-5v-40H5c-2.5,0-5-2.5-5-5v-210c0-3,2.5-5,5-5h20
		v-15c0-1.5,0.5-3,1.5-4C28,8.098,29.5,7.598,31,7.598z M150,107.598c-27.5,0-50,22.5-50,50c0,27.5,22.5,50,50,50s50-22.5,50-50
		C200,130.098,177.5,107.598,150,107.598z M135,215.598c-26-6.5-45-30-45-58c0-31.5,24.5-57,55-60v-60.5l-110-18.5v200l100,18
		V215.598z"/>
</g>
<g>
	<path fill="#D9CDC1" d="M145,37.598l-81.5-8c-10-1-18.5,6.5-18.5,16.5v149.5c0,7,4.5,13.5,11.5,16l78.5,26l-100-20v-200L145,37.598
		z"/>
	<path fill="#D9CDC1" d="M155,37.598l81.5-8c10-1,18.5,6.5,18.5,16.5v149.5c0,7-4.5,13.5-11.5,16l-78.5,26l100-20v-200L155,37.598z"
		/>
</g>
<path fill="#42210B" d="M145.276,181.494c0-3.115,2.163-5.364,5.104-5.364c3.115,0,5.103,2.249,5.103,5.364
	c0,3.027-1.988,5.363-5.103,5.363C147.353,186.857,145.276,184.521,145.276,181.494z M147.439,169.123l-1.211-41.525h8.306
	l-1.212,41.525H147.439z"/>
</svg>
